<svg width="170" height="60" viewBox="0 0 170 60" fill="none" xmlns="http://www.w3.org/2000/svg">
<g filter="url(#filter0_d_3_149)">
<path d="M79.6542 34.8478C79.5165 34.8478 79.396 34.7969 79.2928 34.6951C79.2067 34.5932 79.1637 34.4829 79.1637 34.3641C79.1637 34.2622 79.1809 34.1604 79.2153 34.0585L81.1514 29.1445C81.2202 28.9748 81.3235 28.8135 81.4612 28.6608C81.616 28.508 81.8312 28.4316 82.1065 28.4316H83.8877C84.0426 28.4316 84.1717 28.4825 84.2749 28.5844C84.3782 28.6862 84.4126 28.8305 84.3782 29.0172L83.6037 33.9822C83.5693 34.1858 83.4747 34.381 83.3198 34.5678C83.1821 34.7545 82.967 34.8478 82.6744 34.8478H79.6542Z" fill="#333333"/>
<path d="M90.9884 46.7636C89.8698 46.7636 88.9147 46.6448 88.123 46.4072C87.3486 46.1526 86.7119 45.847 86.2128 45.4906C85.7309 45.1341 85.3695 44.7692 85.1286 44.3958C84.8877 44.0054 84.7586 43.6744 84.7414 43.4028C84.7242 43.2161 84.7844 43.0633 84.9221 42.9445C85.0598 42.8087 85.206 42.7408 85.3609 42.7408H88.3037C88.3554 42.7408 88.3984 42.7493 88.4328 42.7662C88.4672 42.7832 88.5189 42.8172 88.5877 42.8681C88.8114 42.9869 89.0351 43.1397 89.2589 43.3264C89.4826 43.4961 89.7407 43.6489 90.0333 43.7847C90.3259 43.9205 90.6787 43.9884 91.0917 43.9884C91.5735 43.9884 91.978 43.895 92.305 43.7083C92.6319 43.5216 92.7954 43.2415 92.7954 42.8681C92.7954 42.5965 92.718 42.3758 92.5631 42.2061C92.4082 42.0194 92.0898 41.8412 91.608 41.6714C91.1433 41.5017 90.4377 41.3319 89.4912 41.1622C88.5963 40.9585 87.8133 40.6954 87.1421 40.3729C86.4709 40.0334 85.9546 39.6006 85.5932 39.0744C85.2318 38.5312 85.0512 37.8777 85.0512 37.1139C85.0512 36.4349 85.2749 35.7814 85.7223 35.1534C86.1698 34.5253 86.8237 34.0161 87.6842 33.6257C88.5447 33.2183 89.6031 33.0146 90.8594 33.0146C91.8575 33.0146 92.718 33.1334 93.4408 33.3711C94.1808 33.5917 94.8003 33.8803 95.2994 34.2368C95.8157 34.5932 96.2029 34.9582 96.4611 35.3316C96.7192 35.705 96.8569 36.0445 96.8741 36.35C96.8913 36.5198 96.8397 36.6725 96.7192 36.8083C96.5987 36.9272 96.4611 36.9866 96.3062 36.9866H93.6215C93.5526 36.9866 93.4838 36.9781 93.415 36.9611C93.3461 36.9272 93.2859 36.8932 93.2343 36.8593C93.0278 36.7574 92.8212 36.6216 92.6147 36.4519C92.4082 36.2821 92.1673 36.1294 91.8919 35.9936C91.6166 35.8578 91.2724 35.7899 90.8594 35.7899C90.3947 35.7899 90.0333 35.8917 89.7752 36.0954C89.517 36.2991 89.3879 36.5622 89.3879 36.8847C89.3879 37.1054 89.4568 37.3091 89.5945 37.4958C89.7493 37.6825 90.0505 37.8522 90.498 38.005C90.9626 38.1578 91.6768 38.3275 92.6405 38.5142C93.828 38.701 94.7745 39.0065 95.4801 39.4308C96.1857 39.8382 96.6848 40.322 96.9773 40.8821C97.2699 41.4253 97.4162 42.0024 97.4162 42.6135C97.4162 43.4282 97.1666 44.1496 96.6676 44.7777C96.1857 45.4057 95.4629 45.898 94.4992 46.2544C93.5354 46.5939 92.3652 46.7636 90.9884 46.7636Z" fill="#333333"/>
<path d="M107.979 46.509C107.79 46.509 107.635 46.4496 107.514 46.3308C107.394 46.212 107.334 46.0592 107.334 45.8725V32.6836H102.739C102.549 32.6836 102.395 32.6242 102.274 32.5054C102.154 32.3696 102.093 32.2168 102.093 32.0471V29.3228C102.093 29.136 102.154 28.9833 102.274 28.8645C102.395 28.7456 102.549 28.6862 102.739 28.6862H116.627C116.816 28.6862 116.971 28.7456 117.091 28.8645C117.212 28.9833 117.272 29.136 117.272 29.3228V32.0471C117.272 32.2168 117.212 32.3696 117.091 32.5054C116.971 32.6242 116.816 32.6836 116.627 32.6836H112.032V45.8725C112.032 46.0592 111.972 46.212 111.851 46.3308C111.731 46.4496 111.576 46.509 111.387 46.509H107.979Z" fill="#333333"/>
<path d="M122.641 46.7636C121.196 46.7636 119.974 46.5345 118.976 46.0762C117.995 45.6179 117.238 44.9644 116.704 44.1157C116.188 43.25 115.895 42.2231 115.826 41.0349C115.809 40.6954 115.801 40.3135 115.801 39.8891C115.801 39.4478 115.809 39.0659 115.826 38.7434C115.895 37.5382 116.205 36.5113 116.756 35.6626C117.306 34.8139 118.072 34.1604 119.053 33.7021C120.051 33.2438 121.247 33.0146 122.641 33.0146C124.053 33.0146 125.249 33.2438 126.23 33.7021C127.228 34.1604 128.002 34.8139 128.553 35.6626C129.103 36.5113 129.413 37.5382 129.482 38.7434C129.499 39.0659 129.508 39.4478 129.508 39.8891C129.508 40.3135 129.499 40.6954 129.482 41.0349C129.413 42.2231 129.112 43.25 128.579 44.1157C128.062 44.9644 127.305 45.6179 126.307 46.0762C125.326 46.5345 124.104 46.7636 122.641 46.7636ZM122.641 43.6574C123.416 43.6574 123.975 43.4282 124.319 42.9699C124.681 42.5116 124.887 41.8242 124.939 40.9076C124.956 40.653 124.965 40.3135 124.965 39.8891C124.965 39.4648 124.956 39.1253 124.939 38.8707C124.887 37.9711 124.681 37.2921 124.319 36.8338C123.975 36.3585 123.416 36.1209 122.641 36.1209C121.884 36.1209 121.325 36.3585 120.963 36.8338C120.602 37.2921 120.404 37.9711 120.37 38.8707C120.352 39.1253 120.344 39.4648 120.344 39.8891C120.344 40.3135 120.352 40.653 120.37 40.9076C120.404 41.8242 120.602 42.5116 120.963 42.9699C121.325 43.4282 121.884 43.6574 122.641 43.6574Z" fill="#333333"/>
<path d="M136.28 46.7636C135.454 46.7636 134.706 46.6363 134.035 46.3817C133.381 46.1101 132.813 45.7197 132.331 45.2105C131.866 44.6843 131.505 44.0563 131.247 43.3264C130.988 42.5795 130.842 41.7308 130.808 40.7803C130.79 40.4408 130.782 40.1437 130.782 39.8891C130.782 39.6176 130.79 39.3205 130.808 38.998C130.842 38.0814 130.988 37.2582 131.247 36.5283C131.505 35.7984 131.866 35.1703 132.331 34.6441C132.795 34.1179 133.363 33.7191 134.035 33.4475C134.706 33.1589 135.454 33.0146 136.28 33.0146C137.141 33.0146 137.881 33.1589 138.5 33.4475C139.12 33.7191 139.645 34.0755 140.075 34.5168V29.0681C140.075 28.8814 140.135 28.7287 140.256 28.6098C140.376 28.491 140.531 28.4316 140.72 28.4316H143.87C144.042 28.4316 144.188 28.491 144.309 28.6098C144.446 28.7287 144.515 28.8814 144.515 29.0681V45.8725C144.515 46.0592 144.446 46.212 144.309 46.3308C144.188 46.4496 144.042 46.509 143.87 46.509H140.953C140.763 46.509 140.609 46.4496 140.488 46.3308C140.368 46.212 140.307 46.0592 140.307 45.8725V45.0578C139.894 45.55 139.361 45.9574 138.707 46.2799C138.053 46.6024 137.244 46.7636 136.28 46.7636ZM137.674 43.3519C138.259 43.3519 138.715 43.233 139.042 42.9954C139.387 42.7408 139.636 42.4183 139.791 42.0279C139.963 41.6375 140.058 41.2131 140.075 40.7548C140.092 40.4153 140.101 40.0928 140.101 39.7873C140.101 39.4818 140.092 39.1677 140.075 38.8452C140.058 38.4209 139.963 38.0305 139.791 37.674C139.619 37.3006 139.361 37.0035 139.017 36.7829C138.672 36.5452 138.225 36.4264 137.674 36.4264C137.106 36.4264 136.65 36.5452 136.306 36.7829C135.979 37.0205 135.747 37.343 135.609 37.7504C135.471 38.1578 135.385 38.6076 135.351 39.0998C135.299 39.626 135.299 40.1522 135.351 40.6784C135.385 41.1707 135.471 41.6205 135.609 42.0279C135.747 42.4353 135.979 42.7578 136.306 42.9954C136.65 43.233 137.106 43.3519 137.674 43.3519Z" fill="#333333"/>
<path d="M153.133 46.7636C151.688 46.7636 150.466 46.5345 149.468 46.0762C148.487 45.6179 147.73 44.9644 147.196 44.1157C146.68 43.25 146.387 42.2231 146.318 41.0349C146.301 40.6954 146.293 40.3135 146.293 39.8891C146.293 39.4478 146.301 39.0659 146.318 38.7434C146.387 37.5382 146.697 36.5113 147.248 35.6626C147.798 34.8139 148.564 34.1604 149.545 33.7021C150.543 33.2438 151.739 33.0146 153.133 33.0146C154.545 33.0146 155.741 33.2438 156.722 33.7021C157.72 34.1604 158.494 34.8139 159.045 35.6626C159.596 36.5113 159.905 37.5382 159.974 38.7434C159.991 39.0659 160 39.4478 160 39.8891C160 40.3135 159.991 40.6954 159.974 41.0349C159.905 42.2231 159.604 43.25 159.071 44.1157C158.554 44.9644 157.797 45.6179 156.799 46.0762C155.818 46.5345 154.596 46.7636 153.133 46.7636ZM153.133 43.6574C153.908 43.6574 154.467 43.4282 154.811 42.9699C155.173 42.5116 155.379 41.8242 155.431 40.9076C155.448 40.653 155.457 40.3135 155.457 39.8891C155.457 39.4648 155.448 39.1253 155.431 38.8707C155.379 37.9711 155.173 37.2921 154.811 36.8338C154.467 36.3585 153.908 36.1209 153.133 36.1209C152.376 36.1209 151.817 36.3585 151.455 36.8338C151.094 37.2921 150.896 37.9711 150.862 38.8707C150.845 39.1253 150.836 39.4648 150.836 39.8891C150.836 40.3135 150.845 40.653 150.862 40.9076C150.896 41.8242 151.094 42.5116 151.455 42.9699C151.817 43.4282 152.376 43.6574 153.133 43.6574Z" fill="#333333"/>
<path d="M74.8173 39.1409C74.8173 41.2339 74.5302 42.9822 73.956 44.3857C73.4067 45.7647 72.6203 46.8728 71.5967 47.71C70.5981 48.5472 69.3873 49.1382 67.9643 49.4829C66.5662 49.8276 65.0308 50 63.3582 50C61.6855 50 60.1501 49.8276 58.752 49.4829C57.354 49.1382 56.1432 48.5472 55.1196 47.71C54.121 46.8728 53.3345 45.7647 52.7603 44.3857C52.2111 42.9822 51.9365 41.2339 51.9365 39.1409V21.19C51.9365 20.6975 52.1861 20.4513 52.6854 20.4513H58.752C59.2763 20.4513 59.5384 20.6975 59.5384 21.19V39.3994C59.5384 40.9261 59.8255 42.0465 60.3998 42.7606C60.9989 43.45 61.9851 43.7948 63.3582 43.7948C64.7313 43.7948 65.7174 43.45 66.3166 42.7606C66.9157 42.0465 67.2153 40.9261 67.2153 39.3994V21.19C67.2153 20.6975 67.465 20.4513 67.9643 20.4513H74.0309C74.5551 20.4513 74.8173 20.6975 74.8173 21.19V39.1409Z" fill="#333333"/>
<path fill-rule="evenodd" clip-rule="evenodd" d="M40.1204 28.4294C39.9706 28.5772 39.8208 28.7496 39.671 28.9465L28.886 43.0561C28.7612 43.253 28.6738 43.4254 28.6239 43.5732C28.5739 43.6963 28.549 43.8686 28.549 44.0903V48.7072C28.549 49.1997 28.8111 49.446 29.3354 49.446H49.6697C50.194 49.446 50.4561 49.1997 50.4561 48.7072V43.5362C50.4561 43.0437 50.194 42.7975 49.6697 42.7975H38.2106L48.5462 29.0574C48.696 28.8604 48.7335 28.6757 48.6586 28.5033C48.5837 28.3063 48.4089 28.2078 48.1343 28.2078H40.757C40.5074 28.2078 40.2952 28.2817 40.1204 28.4294Z" fill="#333333"/>
<path d="M29.8971 27.0998C29.3728 27.0998 29.1107 26.8535 29.1107 26.361V21.19C29.1107 20.6975 29.3728 20.4513 29.8971 20.4513H48.9582C49.5074 20.4513 49.782 20.6975 49.782 21.19V26.361C49.782 26.8535 49.5074 27.0998 48.9582 27.0998H29.8971Z" fill="#F2F2F2"/>
<path d="M27.0534 39.1409C27.0534 41.2339 26.7663 42.9822 26.1921 44.3857C25.6429 45.7647 24.8565 46.8728 23.8329 47.71C22.8343 48.5472 21.6235 49.1382 20.2004 49.4829C18.8024 49.8276 17.267 50 15.5943 50C13.9216 50 12.3863 49.8276 10.9882 49.4829C9.59013 49.1382 8.37931 48.5472 7.35573 47.71C6.35711 46.8728 5.5707 45.7647 4.99649 44.3857C4.44726 42.9822 4.17264 41.2339 4.17264 39.1409V21.19C4.17264 20.6975 4.42229 20.4513 4.9216 20.4513H10.9882C11.5125 20.4513 11.7746 20.6975 11.7746 21.19V39.3994C11.7746 40.9261 12.0617 42.0465 12.6359 42.7606C13.2351 43.45 14.2212 43.7948 15.5943 43.7948C16.9674 43.7948 17.9535 43.45 18.5527 42.7606C19.1519 42.0465 19.4515 40.9261 19.4515 39.3994V21.19C19.4515 20.6975 19.7011 20.4513 20.2004 20.4513H26.267C26.7913 20.4513 27.0534 20.6975 27.0534 21.19V39.1409Z" fill="#F2F2F2"/>
<path fill-rule="evenodd" clip-rule="evenodd" d="M7.61288 15.0058L7.61243 15.0043L7.60726 14.9878C7.6013 14.9685 7.59131 14.936 7.57786 14.8912C7.55094 14.8014 7.51032 14.6628 7.46053 14.4832C7.36064 14.1228 7.22557 13.6033 7.09054 12.9861C6.81371 11.7208 6.56695 10.1779 6.56987 8.79166C6.57301 7.30192 6.86593 6.66604 6.98466 6.51329C6.99414 6.51058 7.00698 6.50734 7.02371 6.50392C7.16494 6.47512 7.60232 6.43389 8.47964 6.67011C12.7749 7.82664 14.9359 9.51261 15.9919 10.6671C16.5309 11.2563 16.8208 11.7492 16.9643 12.0395C17.0366 12.1858 17.073 12.2831 17.0852 12.3181L17.0859 12.3201C17.5346 14.0061 19.2638 15.0465 20.9984 14.6535C22.7665 14.2528 23.8705 12.5142 23.4643 10.7702L20.2628 11.4957C23.4643 10.7702 23.4637 10.7677 23.4631 10.7653L23.4619 10.7602L23.4594 10.7496L23.4539 10.7268C23.45 10.711 23.4456 10.6938 23.4408 10.6752C23.4311 10.6382 23.4196 10.5957 23.4059 10.5481C23.3784 10.453 23.3423 10.3375 23.2955 10.2037C23.2018 9.93612 23.0653 9.59539 22.8697 9.19969C22.4774 8.40608 21.8514 7.39945 20.87 6.32643C18.885 4.15637 15.587 1.86672 10.2098 0.418881C7.06823 -0.427007 4.04027 -0.0497453 2.01286 2.27661C0.304774 4.23657 0.00404144 6.87946 3.94688e-05 8.77819C-0.00427707 10.826 0.346247 12.88 0.668521 14.353C0.833041 15.105 0.997979 15.74 1.1232 16.1919C1.18597 16.4183 1.23918 16.6003 1.27796 16.7295C1.29736 16.7942 1.31318 16.8458 1.32482 16.8834L1.33908 16.929L1.34373 16.9437L1.34608 16.9511C1.34637 16.952 1.34665 16.9529 4.47954 15.9786L1.34665 16.9529C1.89218 18.6595 3.73707 19.6067 5.46732 19.0687C7.19708 18.5307 8.15743 16.7119 7.61288 15.0058Z" fill="#333333"/>
<path fill-rule="evenodd" clip-rule="evenodd" d="M70.7951 14.9995L70.7955 14.998L70.8007 14.9814C70.8067 14.9622 70.8166 14.9297 70.8301 14.8849C70.857 14.7951 70.8976 14.6565 70.9474 14.4769C71.0473 14.1165 71.1824 13.597 71.3174 12.9798C71.5942 11.7145 71.841 10.1716 71.8381 8.78536C71.8349 7.29562 71.542 6.65974 71.4233 6.50699C71.4138 6.50428 71.401 6.50103 71.3842 6.49762C71.243 6.46882 70.8056 6.42759 69.9283 6.66381C65.633 7.82034 63.472 9.5063 62.4161 10.6608C61.8771 11.25 61.5871 11.7429 61.4436 12.0332C61.3713 12.1795 61.335 12.2768 61.3227 12.3118L61.3221 12.3138C60.8734 13.9998 59.1441 15.0402 57.4096 14.6472C55.6415 14.2465 54.5374 12.5079 54.9437 10.7639L58.1452 11.4894C54.9437 10.7639 54.9443 10.7614 54.9448 10.7589L54.946 10.7539L54.9486 10.7433L54.9541 10.7205C54.958 10.7047 54.9623 10.6875 54.9672 10.6689C54.9768 10.6318 54.9884 10.5894 55.0021 10.5418C55.0295 10.4467 55.0657 10.3312 55.1125 10.1974C55.2061 9.92982 55.3427 9.58908 55.5383 9.19339C55.9306 8.39978 56.5565 7.39315 57.538 6.32013C59.5229 4.15007 62.8209 1.86041 68.1981 0.412578C71.3397 -0.43331 74.3677 -0.0560474 76.3951 2.27031C78.1032 4.23027 78.4039 6.87316 78.4079 8.77188C78.4122 10.8197 78.0617 12.8737 77.7394 14.3467C77.5749 15.0987 77.41 15.7337 77.2848 16.1856C77.222 16.412 77.1688 16.594 77.13 16.7232C77.1106 16.7879 77.0948 16.8395 77.0831 16.8771L77.0689 16.9227L77.0642 16.9374L77.0619 16.9448C77.0616 16.9457 77.0613 16.9466 73.9284 15.9723L77.0613 16.9466C76.5158 18.6532 74.6709 19.6004 72.9406 19.0624C71.2109 18.5244 70.2505 16.7056 70.7951 14.9995Z" fill="#F2F2F2"/>
</g>
<defs>
<filter id="filter0_d_3_149" x="0" y="0" width="170" height="60" filterUnits="userSpaceOnUse" color-interpolation-filters="sRGB">
<feFlood flood-opacity="0" result="BackgroundImageFix"/>
<feColorMatrix in="SourceAlpha" type="matrix" values="0 0 0 0 0 0 0 0 0 0 0 0 0 0 0 0 0 0 127 0" result="hardAlpha"/>
<feOffset dx="5" dy="5"/>
<feGaussianBlur stdDeviation="2.5"/>
<feComposite in2="hardAlpha" operator="out"/>
<feColorMatrix type="matrix" values="0 0 0 0 0 0 0 0 0 0 0 0 0 0 0 0 0 0 0.3 0"/>
<feBlend mode="normal" in2="BackgroundImageFix" result="effect1_dropShadow_3_149"/>
<feBlend mode="normal" in="SourceGraphic" in2="effect1_dropShadow_3_149" result="shape"/>
</filter>
</defs>
</svg>
