<svg width="286" height="96" viewBox="0 0 286 96" fill="none" xmlns="http://www.w3.org/2000/svg">
<g filter="url(#filter0_d_50_92)">
<path d="M137.403 59.9383C137.166 59.9383 136.958 59.8507 136.78 59.6755C136.632 59.5003 136.557 59.3106 136.557 59.1062C136.557 58.931 136.587 58.7559 136.646 58.5807L139.986 50.1286C140.105 49.8366 140.283 49.5593 140.521 49.2965C140.788 49.0338 141.159 48.9024 141.634 48.9024H144.706C144.973 48.9024 145.196 48.99 145.374 49.1651C145.552 49.3403 145.612 49.5885 145.552 49.9096L144.216 58.4493C144.157 58.7996 143.994 59.1354 143.727 59.4565C143.489 59.7777 143.118 59.9383 142.613 59.9383H137.403Z" fill="#BDBDBD"/>
<path d="M156.955 80.4335C155.025 80.4335 153.378 80.2291 152.012 79.8204C150.676 79.3824 149.578 78.8569 148.717 78.2438C147.886 77.6307 147.262 77.003 146.847 76.3607C146.431 75.6892 146.209 75.1199 146.179 74.6528C146.149 74.3316 146.253 74.0689 146.491 73.8645C146.728 73.6309 146.98 73.5142 147.248 73.5142H152.324C152.413 73.5142 152.487 73.5287 152.547 73.5579C152.606 73.5871 152.695 73.6455 152.814 73.7331C153.2 73.9375 153.586 74.2002 153.972 74.5214C154.357 74.8134 154.803 75.0761 155.307 75.3097C155.812 75.5432 156.421 75.66 157.133 75.66C157.964 75.66 158.662 75.4994 159.226 75.1783C159.79 74.8571 160.072 74.3754 160.072 73.7331C160.072 73.266 159.939 72.8865 159.671 72.5945C159.404 72.2733 158.855 71.9668 158.024 71.6748C157.222 71.3829 156.005 71.0909 154.372 70.799C152.829 70.4486 151.478 69.9961 150.32 69.4414C149.162 68.8575 148.272 68.113 147.648 67.2079C147.025 66.2737 146.713 65.1497 146.713 63.8359C146.713 62.668 147.099 61.544 147.871 60.4638C148.643 59.3836 149.771 58.5077 151.255 57.8362C152.74 57.1355 154.565 56.7852 156.732 56.7852C158.454 56.7852 159.939 56.9895 161.185 57.3983C162.462 57.7778 163.531 58.2741 164.391 58.8872C165.282 59.5003 165.95 60.128 166.395 60.7703C166.841 61.4126 167.078 61.9966 167.108 62.5221C167.137 62.814 167.048 63.0768 166.841 63.3103C166.633 63.5147 166.395 63.6169 166.128 63.6169H161.497C161.378 63.6169 161.26 63.6023 161.141 63.5731C161.022 63.5147 160.918 63.4563 160.829 63.3979C160.473 63.2228 160.117 62.9892 159.76 62.6972C159.404 62.4053 158.989 62.1425 158.514 61.909C158.039 61.6754 157.445 61.5586 156.732 61.5586C155.931 61.5586 155.307 61.7338 154.862 62.0841C154.417 62.4345 154.194 62.887 154.194 63.4417C154.194 63.8213 154.313 64.1716 154.55 64.4928C154.818 64.8139 155.337 65.1059 156.109 65.3686C156.911 65.6314 158.143 65.9233 159.805 66.2445C161.853 66.5656 163.486 67.0911 164.703 67.821C165.92 68.5217 166.781 69.3538 167.286 70.3173C167.791 71.2515 168.043 72.2442 168.043 73.2952C168.043 74.6966 167.612 75.9374 166.752 77.0176C165.92 78.0978 164.674 78.9445 163.011 79.5576C161.349 80.1415 159.33 80.4335 156.955 80.4335Z" fill="#BDBDBD"/>
<path d="M186.264 79.9955C185.937 79.9955 185.67 79.8934 185.462 79.689C185.255 79.4846 185.151 79.2219 185.151 78.9007V56.2158H177.224C176.898 56.2158 176.631 56.1137 176.423 55.9093C176.215 55.6757 176.111 55.413 176.111 55.121V50.4351C176.111 50.114 176.215 49.8512 176.423 49.6469C176.631 49.4425 176.898 49.3403 177.224 49.3403H201.181C201.508 49.3403 201.775 49.4425 201.983 49.6469C202.191 49.8512 202.294 50.114 202.294 50.4351V55.121C202.294 55.413 202.191 55.6757 201.983 55.9093C201.775 56.1137 201.508 56.2158 201.181 56.2158H193.255V78.9007C193.255 79.2219 193.151 79.4846 192.943 79.689C192.735 79.8934 192.468 79.9955 192.142 79.9955H186.264Z" fill="#BDBDBD"/>
<path d="M211.556 80.4335C209.063 80.4335 206.955 80.0393 205.233 79.2511C203.541 78.4628 202.235 77.3388 201.314 75.879C200.424 74.39 199.919 72.6237 199.8 70.58C199.771 69.9961 199.756 69.3392 199.756 68.6093C199.756 67.8502 199.771 67.1933 199.8 66.6386C199.919 64.5658 200.454 62.7994 201.404 61.3396C202.354 59.8799 203.675 58.7558 205.367 57.9676C207.089 57.1793 209.152 56.7852 211.556 56.7852C213.991 56.7852 216.054 57.1793 217.746 57.9676C219.468 58.7558 220.804 59.8799 221.754 61.3396C222.704 62.7994 223.238 64.5658 223.357 66.6386C223.386 67.1933 223.401 67.8502 223.401 68.6093C223.401 69.3392 223.386 69.9961 223.357 70.58C223.238 72.6237 222.718 74.39 221.798 75.879C220.908 77.3388 219.601 78.4628 217.88 79.2511C216.187 80.0393 214.08 80.4335 211.556 80.4335ZM211.556 75.0907C212.892 75.0907 213.857 74.6966 214.451 73.9083C215.074 73.12 215.43 71.9376 215.519 70.361C215.549 69.9231 215.564 69.3392 215.564 68.6093C215.564 67.8794 215.549 67.2955 215.519 66.8576C215.43 65.3102 215.074 64.1424 214.451 63.3541C213.857 62.5367 212.892 62.1279 211.556 62.1279C210.25 62.1279 209.285 62.5367 208.662 63.3541C208.038 64.1424 207.697 65.3102 207.638 66.8576C207.608 67.2955 207.593 67.8794 207.593 68.6093C207.593 69.3392 207.608 69.9231 207.638 70.361C207.697 71.9376 208.038 73.12 208.662 73.9083C209.285 74.6966 210.25 75.0907 211.556 75.0907Z" fill="#BDBDBD"/>
<path d="M235.084 80.4335C233.659 80.4335 232.367 80.2145 231.21 79.7766C230.081 79.3095 229.102 78.638 228.271 77.7621C227.469 76.857 226.846 75.7768 226.4 74.5214C225.955 73.2368 225.703 71.777 225.643 70.1421C225.614 69.5582 225.599 69.0472 225.599 68.6093C225.599 68.1422 225.614 67.6313 225.643 67.0766C225.703 65.5 225.955 64.084 226.4 62.8286C226.846 61.5732 227.469 60.493 228.271 59.5879C229.072 58.6829 230.052 57.9968 231.21 57.5296C232.367 57.0333 233.659 56.7852 235.084 56.7852C236.568 56.7852 237.844 57.0333 238.913 57.5296C239.982 57.9968 240.887 58.6099 241.629 59.369V49.9972C241.629 49.6761 241.733 49.4133 241.941 49.2089C242.149 49.0046 242.416 48.9024 242.743 48.9024H248.175C248.472 48.9024 248.724 49.0046 248.932 49.2089C249.17 49.4133 249.289 49.6761 249.289 49.9972V78.9007C249.289 79.2219 249.17 79.4846 248.932 79.689C248.724 79.8934 248.472 79.9955 248.175 79.9955H243.143C242.817 79.9955 242.55 79.8934 242.342 79.689C242.134 79.4846 242.03 79.2219 242.03 78.9007V77.4993C241.318 78.346 240.397 79.0467 239.269 79.6014C238.141 80.1561 236.746 80.4335 235.084 80.4335ZM237.488 74.5652C238.498 74.5652 239.284 74.3608 239.848 73.9521C240.442 73.5142 240.872 72.9594 241.14 72.2879C241.436 71.6164 241.6 70.8866 241.629 70.0983C241.659 69.5144 241.674 68.9597 241.674 68.4341C241.674 67.9086 241.659 67.3685 241.629 66.8138C241.6 66.0839 241.436 65.4124 241.14 64.7993C240.843 64.157 240.397 63.6461 239.804 63.2666C239.21 62.8578 238.438 62.6534 237.488 62.6534C236.509 62.6534 235.722 62.8578 235.128 63.2666C234.564 63.6753 234.163 64.23 233.926 64.9307C233.688 65.6314 233.54 66.4051 233.481 67.2517C233.391 68.1568 233.391 69.0618 233.481 69.9669C233.54 70.8136 233.688 71.5872 233.926 72.2879C234.163 72.9886 234.564 73.5434 235.128 73.9521C235.722 74.3608 236.509 74.5652 237.488 74.5652Z" fill="#BDBDBD"/>
<path d="M264.155 80.4335C261.661 80.4335 259.554 80.0393 257.832 79.2511C256.14 78.4628 254.834 77.3388 253.913 75.879C253.023 74.39 252.518 72.6237 252.399 70.58C252.37 69.9961 252.355 69.3392 252.355 68.6093C252.355 67.8502 252.37 67.1933 252.399 66.6386C252.518 64.5658 253.052 62.7994 254.002 61.3396C254.952 59.8799 256.273 58.7558 257.966 57.9676C259.687 57.1793 261.751 56.7852 264.155 56.7852C266.589 56.7852 268.653 57.1793 270.345 57.9676C272.067 58.7558 273.402 59.8799 274.352 61.3396C275.302 62.7994 275.837 64.5658 275.955 66.6386C275.985 67.1933 276 67.8502 276 68.6093C276 69.3392 275.985 69.9961 275.955 70.58C275.837 72.6237 275.317 74.39 274.397 75.879C273.506 77.3388 272.2 78.4628 270.478 79.2511C268.786 80.0393 266.678 80.4335 264.155 80.4335ZM264.155 75.0907C265.491 75.0907 266.456 74.6966 267.05 73.9083C267.673 73.12 268.029 71.9376 268.118 70.361C268.148 69.9231 268.163 69.3392 268.163 68.6093C268.163 67.8794 268.148 67.2955 268.118 66.8576C268.029 65.3102 267.673 64.1424 267.05 63.3541C266.456 62.5367 265.491 62.1279 264.155 62.1279C262.849 62.1279 261.884 62.5367 261.261 63.3541C260.637 64.1424 260.296 65.3102 260.237 66.8576C260.207 67.2955 260.192 67.8794 260.192 68.6093C260.192 69.3392 260.207 69.9231 260.237 70.361C260.296 71.9376 260.637 73.12 261.261 73.9083C261.884 74.6966 262.849 75.0907 264.155 75.0907Z" fill="#BDBDBD"/>
<path d="M129.06 67.3223C129.06 70.9223 128.565 73.9294 127.574 76.3435C126.627 78.7153 125.27 80.6211 123.504 82.0612C121.782 83.5012 119.693 84.5176 117.238 85.1106C114.827 85.7035 112.178 86 109.293 86C106.407 86 103.759 85.7035 101.347 85.1106C98.9356 84.5176 96.8469 83.5012 95.0813 82.0612C93.3587 80.6211 92.0021 78.7153 91.0116 76.3435C90.0642 73.9294 89.5904 70.9223 89.5904 67.3223V36.4468C89.5904 35.5998 90.0211 35.1762 90.8824 35.1762H101.347C102.252 35.1762 102.704 35.5998 102.704 36.4468V67.767C102.704 70.3929 103.199 72.3199 104.19 73.5482C105.223 74.7341 106.924 75.327 109.293 75.327C111.661 75.327 113.362 74.7341 114.396 73.5482C115.43 72.3199 115.946 70.3929 115.946 67.767V36.4468C115.946 35.5998 116.377 35.1762 117.238 35.1762H127.703C128.608 35.1762 129.06 35.5998 129.06 36.4468V67.3223Z" fill="#BDBDBD"/>
<path fill-rule="evenodd" clip-rule="evenodd" d="M69.2077 48.8987C68.9493 49.1528 68.6909 49.4492 68.4325 49.7881L49.8283 74.0564C49.613 74.3952 49.4623 74.6917 49.3762 74.9458C49.29 75.1576 49.247 75.4541 49.247 75.8353V83.7765C49.247 84.6235 49.6991 85.0471 50.6035 85.0471H85.6802C86.5846 85.0471 87.0368 84.6235 87.0368 83.7765V74.8823C87.0368 74.0352 86.5846 73.6117 85.6802 73.6117H65.9132L83.7423 49.9787C84.0007 49.6398 84.0653 49.3222 83.9361 49.0257C83.8069 48.6869 83.5054 48.5175 83.0317 48.5175H70.3059C69.8752 48.5175 69.5092 48.6445 69.2077 48.8987Z" fill="#BDBDBD"/>
<path d="M51.5725 46.6116C50.6681 46.6116 50.2159 46.188 50.2159 45.341V36.4468C50.2159 35.5998 50.6681 35.1762 51.5725 35.1762H84.4529C85.4003 35.1762 85.874 35.5998 85.874 36.4468V45.341C85.874 46.188 85.4003 46.6116 84.4529 46.6116H51.5725Z" fill="#BDBDBD"/>
<path d="M51.5725 46.6116C50.6681 46.6116 50.2159 46.188 50.2159 45.341V36.4468C50.2159 35.5998 50.6681 35.1762 51.5725 35.1762H84.4529C85.4003 35.1762 85.874 35.5998 85.874 36.4468V45.341C85.874 46.188 85.4003 46.6116 84.4529 46.6116H51.5725Z" fill="white"/>
<path d="M46.6672 67.3223C46.6672 70.9223 46.1719 73.9294 45.1814 76.3435C44.234 78.7153 42.8774 80.6211 41.1117 82.0612C39.3891 83.5012 37.3005 84.5176 34.8457 85.1106C32.4341 85.7035 29.7856 86 26.9002 86C24.0148 86 21.3663 85.7035 18.9546 85.1106C16.543 84.5176 14.4543 83.5012 12.6886 82.0612C10.966 80.6211 9.60946 78.7153 8.61895 76.3435C7.67152 73.9294 7.1978 70.9223 7.1978 67.3223V36.4468C7.1978 35.5998 7.62845 35.1762 8.48976 35.1762H18.9546C19.859 35.1762 20.3112 35.5998 20.3112 36.4468V67.767C20.3112 70.3929 20.8064 72.3199 21.7969 73.5482C22.8305 74.7341 24.5316 75.327 26.9002 75.327C29.2688 75.327 30.9699 74.7341 32.0034 73.5482C33.037 72.3199 33.5538 70.3929 33.5538 67.767V36.4468C33.5538 35.5998 33.9844 35.1762 34.8457 35.1762H45.3106C46.215 35.1762 46.6672 35.5998 46.6672 36.4468V67.3223Z" fill="white"/>
<path fill-rule="evenodd" clip-rule="evenodd" d="M13.1322 25.8099L13.1314 25.8075L13.1225 25.7789C13.1122 25.7459 13.095 25.6899 13.0718 25.6128C13.0254 25.4585 12.9553 25.2201 12.8694 24.9111C12.6971 24.2911 12.4641 23.3977 12.2312 22.3361C11.7537 20.1598 11.328 17.506 11.333 15.1217C11.3384 12.5593 11.8437 11.4656 12.0485 11.2029C12.0649 11.1982 12.087 11.1926 12.1159 11.1867C12.3595 11.1372 13.114 11.0663 14.6274 11.4726C22.0367 13.4618 25.7645 16.3617 27.586 18.3474C28.5158 19.3609 29.0159 20.2086 29.2635 20.708C29.3882 20.9595 29.4509 21.127 29.472 21.1872L29.4732 21.1905C30.2471 24.0905 33.2301 25.88 36.2222 25.2039C39.2722 24.5147 41.1767 21.5244 40.4759 18.5248L34.9533 19.7727C40.4759 18.5248 40.4749 18.5205 40.4739 18.5162L40.4718 18.5075L40.4674 18.4893L40.4579 18.4502C40.4512 18.4229 40.4437 18.3933 40.4354 18.3614C40.4187 18.2976 40.3988 18.2246 40.3751 18.1428C40.3278 17.9792 40.2655 17.7804 40.1847 17.5503C40.0232 17.0901 39.7876 16.5041 39.4502 15.8235C38.7735 14.4585 37.6937 12.7271 36.0007 10.8815C32.5767 7.14896 26.8876 3.21075 17.6119 0.720475C12.1927 -0.734453 6.96947 -0.0855618 3.47219 3.91578C0.525734 7.2869 0.00697148 11.8327 6.80837e-05 15.0985C-0.00737795 18.6208 0.597276 22.1535 1.1532 24.6871C1.437 25.9805 1.72151 27.0729 1.93753 27.85C2.0458 28.2395 2.13759 28.5525 2.20447 28.7748C2.23794 28.8861 2.26523 28.9748 2.28531 29.0394L2.30992 29.1179L2.31793 29.1432L2.32199 29.1559C2.32249 29.1575 2.32297 29.159 7.7272 27.4832L2.32297 29.159C3.26401 32.0943 6.44644 33.7236 9.43112 32.7981C12.415 31.8729 14.0716 28.7445 13.1322 25.8099Z" fill="#BDBDBD"/>
<path fill-rule="evenodd" clip-rule="evenodd" d="M122.122 25.7991L122.122 25.7966L122.131 25.7681C122.141 25.735 122.159 25.6791 122.182 25.602C122.228 25.4476 122.298 25.2092 122.384 24.9002C122.557 24.2803 122.79 23.3868 123.023 22.3253C123.5 20.149 123.926 17.4951 123.921 15.1108C123.915 12.5485 123.41 11.4547 123.205 11.192C123.189 11.1874 123.167 11.1818 123.138 11.1759C122.894 11.1264 122.14 11.0555 120.626 11.4618C113.217 13.451 109.489 16.3508 107.668 18.3365C106.738 19.35 106.238 20.1978 105.99 20.6971C105.866 20.9487 105.803 21.1161 105.782 21.1764L105.781 21.1797C105.007 24.0797 102.024 25.8692 99.0316 25.1931C95.9815 24.5039 94.0771 21.5135 94.7779 18.5139L100.3 19.7618C94.7779 18.5139 94.7789 18.5097 94.7799 18.5054L94.7819 18.4966L94.7863 18.4784L94.7958 18.4393C94.8025 18.4121 94.81 18.3825 94.8184 18.3506C94.835 18.2868 94.8549 18.2137 94.8786 18.1319C94.926 17.9684 94.9883 17.7696 95.069 17.5395C95.2306 17.0793 95.4661 16.4932 95.8035 15.8126C96.4802 14.4476 97.56 12.7162 99.2531 10.8706C102.677 7.13812 108.366 3.19991 117.642 0.709635C123.061 -0.745293 128.284 -0.0964015 131.782 3.90494C134.728 7.27606 135.247 11.8218 135.254 15.0876C135.261 18.6099 134.656 22.1427 134.101 24.6763C133.817 25.9697 133.532 27.062 133.316 27.8392C133.208 28.2287 133.116 28.5416 133.049 28.764C133.016 28.8752 132.988 28.964 132.968 29.0285L132.944 29.1071L132.936 29.1324L132.932 29.1451C132.931 29.1467 132.931 29.1481 127.527 27.4724L132.931 29.1481C131.99 32.0834 128.807 33.7127 125.823 32.7872C122.839 31.862 121.182 28.7337 122.122 25.7991Z" fill="white"/>
</g>
<defs>
<filter id="filter0_d_50_92" x="0" y="0" width="286" height="96" filterUnits="userSpaceOnUse" color-interpolation-filters="sRGB">
<feFlood flood-opacity="0" result="BackgroundImageFix"/>
<feColorMatrix in="SourceAlpha" type="matrix" values="0 0 0 0 0 0 0 0 0 0 0 0 0 0 0 0 0 0 127 0" result="hardAlpha"/>
<feOffset dx="5" dy="5"/>
<feGaussianBlur stdDeviation="2.5"/>
<feComposite in2="hardAlpha" operator="out"/>
<feColorMatrix type="matrix" values="0 0 0 0 0 0 0 0 0 0 0 0 0 0 0 0 0 0 0.3 0"/>
<feBlend mode="normal" in2="BackgroundImageFix" result="effect1_dropShadow_50_92"/>
<feBlend mode="normal" in="SourceGraphic" in2="effect1_dropShadow_50_92" result="shape"/>
</filter>
</defs>
</svg>
